<?xml version="1.0" standalone="no"?>
<!DOCTYPE svg PUBLIC "-//W3C//DTD SVG 20010904//EN"
 "http://www.w3.org/TR/2001/REC-SVG-20010904/DTD/svg10.dtd">
<svg version="1.0" xmlns="http://www.w3.org/2000/svg"
 width="26.000000pt" height="26.000000pt" viewBox="0 0 26.000000 26.000000"
 preserveAspectRatio="xMidYMid meet">

<g transform="translate(0.000000,26.000000) scale(0.100000,-0.100000)"
fill="#000000" stroke="none">
<path d="M63 240 c-85 -51 -81 -179 6 -225 116 -60 239 71 171 182 -37 61
-116 81 -177 43z m117 -15 c32 -17 60 -61 60 -95 0 -53 -57 -110 -110 -110
-53 0 -110 57 -110 110 0 33 28 78 58 94 35 20 66 20 102 1z"/>
<path d="M145 140 c-27 -28 -30 -29 -47 -13 -10 9 -21 13 -25 10 -8 -9 26 -47
42 -47 12 0 75 61 75 73 0 15 -17 6 -45 -23z"/>
</g>
</svg>
